#!OML:ASF H:\LiuWeirdWalks\Patient Classification 1\Patient 1\Session 1\male.ASF
:FULLY-SPECIFIED
:DEGREES
1038
root 2.53007 18.3361 6.44192 7.15716 1.54319 -10.8691
lowerback 9.73529 -0.235105 -7.62413
upperback -0.0404053 -1.22742 -0.923458
thorax -5.38174 -0.412192 3.49416
lowerneck -22.3552 -0.194921 6.00024
upperneck 17.4539 -2.1741 -0.266966
head 9.10197 -0.632691 -1.37203
rclavicle -1.47101e-014 -3.81667e-014
rhumerus -11.4238 -29.0901 -6.72693
rradius 32.9517
rwrist -1.71898
rhand -21.2535 -6.5334
rfingers 7.12502
rthumb 5.12958 -36.4513
lclavicle -1.47101e-014 -3.81667e-014
lhumerus -28.7941 30.1453 23.5409
lradius 40.7286
lwrist 10.239
lhand -20.1066 -3.51748
lfingers 7.12502
lthumb 6.23691 26.3707
rfemur -4.00665 -8.01852 21.8977
rtibia 41.2138
rfoot 5.98354 -0.42746
rtoes -10.8054
lfemur -16.5483 -1.92194 -7.95697
ltibia 29.5764
lfoot -10.3136 17.9485
ltoes -9.05942
1039
root 2.54875 18.3364 6.47317 7.06487 1.57053 -10.7982
lowerback 9.80121 -0.233266 -7.70347
upperback -0.0126034 -1.24067 -0.959939
thorax -5.38737 -0.417505 3.50299
lowerneck -22.4043 -0.229134 5.93032
upperneck 17.5126 -2.21953 -0.19474
head 9.13128 -0.648531 -1.34308
rclavicle -2.78299e-014 -1.59028e-014
rhumerus -11.3792 -29.0719 -6.76955
rradius 32.9598
rwrist -1.75773
rhand -21.2236 -6.50199
rfingers 7.12502
rthumb 5.15847 -36.4192
lclavicle -2.78299e-014 -1.59028e-014
lhumerus -28.7751 30.178 23.5739
lradius 40.6831
lwrist 10.2031
lhand -20.1452 -3.53183
lfingers 7.12502
lthumb 6.19959 26.3575
rfemur -4.398 -8.09481 21.7772
rtibia 42.07
rfoot 4.94008 -0.713418
rtoes -10.799
lfemur -16.2435 -1.83628 -8.09261
ltibia 29.3939
lfoot -10.4259 17.7603
ltoes -9.27166
1040
root 2.56696 18.3363 6.5041 6.97374 1.60734 -10.7131
lowerback 9.85773 -0.230668 -7.78142
upperback 0.0196269 -1.25179 -0.998081
thorax -5.38326 -0.42233 3.50878
lowerneck -22.4322 -0.284131 5.81125
upperneck 17.58 -2.28714 -0.0733906
head 9.16063 -0.672204 -1.29222
rclavicle -1.59028e-015 -2.22639e-014
rhumerus -11.3435 -29.1096 -6.7848
rradius 32.9542
rwrist -1.7299
rhand -21.1747 -6.43633
rfingers 7.12502
rthumb 5.20568 -36.3524
lclavicle -1.59028e-015 -2.22639e-014
lhumerus -28.7601 30.1738 23.63
lradius 40.6641
lwrist 10.2157
lhand -20.1972 -3.51853
lfingers 7.12502
lthumb 6.14948 26.3722
rfemur -4.78586 -8.17267 21.6516
rtibia 42.8664
rfoot 3.75049 -1.06848
rtoes -11.0208
lfemur -15.9486 -1.76389 -8.24321
ltibia 29.2183
lfoot -10.533 17.5806
ltoes -9.47419
1041
root 2.58442 18.3362 6.53492 6.88531 1.65737 -10.6324
lowerback 9.90733 -0.231896 -7.84829
upperback 0.0542832 -1.26566 -1.03073
thorax -5.37237 -0.429069 3.51439
lowerneck -22.4666 -0.352466 5.65802
upperneck 17.6637 -2.37207 0.0886645
head 9.19758 -0.701047 -1.22439
rclavicle 2.54444e-014 5.08889e-014
rhumerus -11.3 -29.2048 -6.79093
rradius 32.9436
rwrist -1.65334
rhand -21.1502 -6.363
rfingers 7.12502
rthumb 5.22935 -36.2785
lclavicle 2.54444e-014 5.08889e-014
lhumerus -28.7595 30.1349 23.6995
lradius 40.6679
lwrist 10.2729
lhand -20.2779 -3.46653
lfingers 7.12502
lthumb 6.0715 26.4265
rfemur -5.17391 -8.24687 21.5478
rtibia 43.5919
rfoot 2.51194 -1.46725
rtoes -11.3679
lfemur -15.665 -1.71427 -8.38441
ltibia 29.0488
lfoot -10.6446 17.4131
ltoes -9.61924
1042
root 2.60145 18.336 6.56569 6.80364 1.72972 -10.5538
lowerback 9.9512 -0.240929 -7.89959
upperback 0.0948629 -1.28714 -1.0619
thorax -5.35128 -0.440495 3.51372
lowerneck -22.48 -0.406121 5.55
upperneck 17.7068 -2.44346 0.225451
head 9.21652 -0.724553 -1.17012
rclavicle -1.23246e-014 -6.36111e-015
rhumerus -11.2671 -29.329 -6.782
rradius 32.9484
rwrist -1.55236
rhand -21.1268 -6.31958
rfingers 7.12502
rthumb 5.2519 -36.2345
lclavicle -1.23246e-014 -6.36111e-015
lhumerus -28.7635 30.0945 23.7734
lradius 40.6744
lwrist 10.3354
lhand -20.3444 -3.42099
lfingers 7.12502
lthumb 6.00729 26.4738
rfemur -5.56438 -8.32993 21.46
rtibia 44.2423
rfoot 1.34351 -1.88767
rtoes -11.6621
lfemur -15.3969 -1.68592 -8.52063
ltibia 28.8822
lfoot -10.7613 17.2523
ltoes -9.69378
1043
root 2.61816 18.3356 6.59676 6.72536 1.82356 -10.4721
lowerback 10.0015 -0.258552 -7.9454
upperback 0.132557 -1.31993 -1.08871
thorax -5.33549 -0.457282 3.51631
lowerneck -22.4848 -0.449781 5.47559
upperneck 17.7253 -2.50515 0.336766
head 9.22499 -0.744881 -1.12841
rclavicle 7.55382e-015 1.27222e-014
rhumerus -11.2273 -29.4885 -6.76228
rradius 32.9541
rwrist -1.40851
rhand -21.1032 -6.23727
rfingers 7.12502
rthumb 5.27471 -36.1516
lclavicle 7.55382e-015 1.27222e-014
lhumerus -28.8009 30.0389 23.8481
lradius 40.6987
lwrist 10.4074
lhand -20.3899 -3.39661
lfingers 7.12502
lthumb 5.96336 26.4995
rfemur -5.95215 -8.4249 21.3811
rtibia 44.8152
rfoot 0.309276 -2.32848
rtoes -11.8578
lfemur -15.1366 -1.69207 -8.65875
ltibia 28.7164
lfoot -10.8853 17.1117
ltoes -9.70641
1044
root 2.63447 18.335 6.62794 6.65307 1.94082 -10.3852
lowerback 10.0567 -0.282524 -7.98582
upperback 0.165544 -1.36108 -1.11184
thorax -5.32646 -0.477877 3.52106
lowerneck -22.4637 -0.476183 5.4588
upperneck 17.689 -2.54645 0.3945
head 9.20881 -0.759635 -1.11098
rclavicle -3.57812e-015 -3.49861e-014
rhumerus -11.1993 -29.6346 -6.71983
rradius 32.9827
rwrist -1.28417
rhand -21.1044 -6.20601
rfingers 7.12502
rthumb 5.27356 -36.1204
lclavicle -3.57812e-015 -3.49861e-014
lhumerus -28.8486 29.9934 23.9295
lradius 40.7176
lwrist 10.4647
lhand -20.4068 -3.38415
lfingers 7.12502
lthumb 5.94711 26.5124
rfemur -6.34379 -8.53234 21.3106
rtibia 45.314
rfoot -0.567452 -2.8033
rtoes -12.0283
lfemur -14.8866 -1.7258 -8.80066
ltibia 28.55
lfoot -11.0122 16.9838
ltoes -9.6638
1045
root 2.65061 18.3341 6.65939 6.58481 2.07616 -10.2976
lowerback 10.1178 -0.316015 -8.02032
upperback 0.198135 -1.4145 -1.13012
thorax -5.31963 -0.504487 3.52948
lowerneck -22.4781 -0.491236 5.46786
upperneck 17.6544 -2.57787 0.428962
head 9.19901 -0.770476 -1.10467
rclavicle -5.96354e-015 -1.90833e-014
rhumerus -11.1761 -29.7209 -6.65974
rradius 33.0401
rwrist -1.19409
rhand -21.085 -6.29609
rfingers 7.12502
rthumb 5.29224 -36.21
lclavicle -5.96354e-015 -1.90833e-014
lhumerus -28.9181 29.9914 23.9986
lradius 40.7206
lwrist 10.4749
lhand -20.3839 -3.41093
lfingers 7.12502
lthumb 5.96921 26.485
rfemur -6.73458 -8.65281 21.2481
rtibia 45.7414
rfoot -1.30472 -3.3255
rtoes -12.197
lfemur -14.6434 -1.78405 -8.94402
ltibia 28.3867
lfoot -11.1402 16.8714
ltoes -9.60024
1046
root 2.66677 18.3328 6.69101 6.52596 2.21745 -10.1947
lowerback 10.1658 -0.350511 -8.05498
upperback 0.226444 -1.46837 -1.15057
thorax -5.30999 -0.531345 3.53556
lowerneck -22.4853 -0.515331 5.46402
upperneck 17.6214 -2.61853 0.470251
head 9.18852 -0.785729 -1.09517
rclavicle 3.53837e-014 -6.36111e-015
rhumerus -11.164 -29.7714 -6.57025
rradius 33.1017
rwrist -1.13197
rhand -21.0366 -6.38689
rfingers 7.12502
rthumb 5.33902 -36.2996
lclavicle 3.53837e-014 -6.36111e-015
lhumerus -28.9874 30.0123 24.0787
lradius 40.7097
lwrist 10.4672
lhand -20.3542 -3.43668
lfingers 7.12502
lthumb 5.99789 26.4584
rfemur -7.13238 -8.77521 21.1751
rtibia 46.1053
rfoot -1.94101 -3.91366
rtoes -12.399
lfemur -14.4111 -1.86641 -9.1079
ltibia 28.2298
lfoot -11.2633 16.7891
ltoes -9.53132
1047
root 2.68252 18.3307 6.72262 6.4744 2.35555 -10.112
lowerback 10.2031 -0.38889 -8.07043
upperback 0.258614 -1.52343 -1.16362
thorax -5.29019 -0.559707 3.53861
lowerneck -22.5238 -0.540429 5.45796
upperneck 17.6234 -2.66615 0.52481
head 9.19589 -0.801654 -1.08229
rclavicle 9.14409e-015 0
rhumerus -11.1394 -29.8279 -6.48184
rradius 33.1572
rwrist -1.06932
rhand -20.987 -6.5368
rfingers 7.12502
rthumb 5.38692 -36.4483
lclavicle 9.14409e-015 0
lhumerus -29.0684 30.0807 24.144
lradius 40.6746
lwrist 10.4077
lhand -20.3011 -3.4886
lfingers 7.12502
lthumb 6.04914 26.405
rfemur -7.54048 -8.88151 21.1356
rtibia 46.4104
rfoot -2.51384 -4.58841
rtoes -12.5784
lfemur -14.1912 -1.94616 -9.2497
ltibia 28.0846
lfoot -11.382 16.7191
ltoes -9.46097
1048
root 2.69776 18.3279 6.75389 6.43557 2.48639 -10.0215
lowerback 10.2312 -0.424651 -8.09065
upperback 0.28643 -1.57496 -1.1773
thorax -5.27022 -0.586127 3.54301
lowerneck -22.5435 -0.572437 5.44156
upperneck 17.651 -2.724 0.599586
head 9.20926 -0.820083 -1.0623
rclavicle -1.07344e-014 -4.45278e-014
rhumerus -11.1255 -29.8321 -6.37726
rradius 33.2275
rwrist -1.07697
rhand -20.9479 -6.64066
rfingers 7.12502
rthumb 5.42461 -36.5512
lclavicle -1.07344e-014 -4.45278e-014
lhumerus -29.1582 30.148 24.2126
lradius 40.6409
lwrist 10.3452
lhand -20.242 -3.53155
lfingers 7.12502
lthumb 6.1062 26.3605
rfemur -7.9687 -8.97071 21.0976
rtibia 46.6648
rfoot -3.05589 -5.35283
rtoes -12.7102
lfemur -13.9903 -2.02181 -9.40042
ltibia 27.9523
lfoot -11.4937 16.6629
ltoes -9.41463
1049
root 2.71211 18.3248 6.78463 6.40684 2.60151 -9.928
lowerback 10.2608 -0.456132 -8.11999
upperback 0.301047 -1.62277 -1.18987
thorax -5.26521 -0.609534 3.55336
lowerneck -22.5465 -0.617229 5.40334
upperneck 17.7051 -2.79916 0.705698
head 9.22954 -0.843744 -1.0305
rclavicle 2.70347e-014 3.81667e-014
rhumerus -11.1111 -29.7888 -6.27328
rradius 33.3093
rwrist -1.15812
rhand -20.9638 -6.83631
rfingers 7.12502
rthumb 5.40926 -36.7473
lclavicle 2.70347e-014 3.81667e-014
lhumerus -29.2699 30.1693 24.2815
lradius 40.6267
lwrist 10.3127
lhand -20.2094 -3.5193
lfingers 7.12502
lthumb 6.13764 26.3718
rfemur -8.42006 -9.02746 21.0704
rtibia 46.8724
rfoot -3.60325 -6.20957
rtoes -12.8161
lfemur -13.8056 -2.09078 -9.5518
ltibia 27.832
lfoot -11.5987 16.6188
ltoes -9.37666
